<?xml version="1.0" encoding="UTF-8" standalone="no"?>
<svg
   xmlns:dc="http://purl.org/dc/elements/1.1/"
   xmlns:cc="http://creativecommons.org/ns#"
   xmlns:rdf="http://www.w3.org/1999/02/22-rdf-syntax-ns#"
   xmlns:svg="http://www.w3.org/2000/svg"
   xmlns="http://www.w3.org/2000/svg"
   id="svg58"
   version="1.1"
   viewBox="0 0 24.03076 24.407211"
   height="24.407211mm"
   width="24.03076mm">

  <g
     transform="translate(-85.818721,-135.90335)"
     id="layer1">
    <path
       id="path524-3"
       style="fill:none;fill-opacity:1;stroke:#000000;stroke-width:1.5875;stroke-linecap:butt;stroke-linejoin:round;stroke-miterlimit:4;stroke-dasharray:none;stroke-opacity:1"
       d="m 265.9082,104.35156 -4.82422,3.4375 4.72266,3.94727 a 0.55067294,0.55067294 0 0 1 0.11524,0.70898 l -5.85157,9.54688 4.54297,3.28711 a 0.55067294,0.55067294 0 0 1 0.0195,0.87695 l -4.50781,3.55859 3.66797,4.84571 3.8457,-4.66211 a 0.55067294,0.55067294 0 0 1 0.7168,-0.11719 l 8.68945,5.40039 4.03516,-5.2832 a 0.55067294,0.55067294 0 0 1 0.84765,-0.0332 l 3.6836,4.10743 3.98242,-3.17383 -5.14844,-3.63281 a 0.55067294,0.55067294 0 0 1 -0.14258,-0.75 l 5.67383,-8.72461 -4.23047,-3.5586 a 0.55067294,0.55067294 0 0 1 0.008,-0.84765 l 4.64648,-3.78907 -3.5625,-4.68554 -3.72851,4.53515 a 0.55067294,0.55067294 0 0 1 -0.71485,0.11914 l -8.2168,-5.06054 -3.73632,4.58008 a 0.55067294,0.55067294 0 0 1 -0.85743,-0.006 z"
       transform="matrix(0.75290177,0,0,0.75290177,-109.39108,57.934471)" />
  </g>
</svg>
